<svg width="1600" height="1000" viewBox="0 0 1600 1000" fill="none" xmlns="http://www.w3.org/2000/svg">
  <rect width="1600" height="1000" rx="40" fill="#07111D"/>
  <rect x="70" y="70" width="1460" height="860" rx="30" fill="#0C1728" stroke="#22314A"/>
  <rect x="120" y="130" width="1360" height="160" rx="26" fill="#101D31"/>
  <rect x="120" y="340" width="640" height="520" rx="26" fill="#101D31"/>
  <rect x="820" y="340" width="660" height="250" rx="26" fill="#101D31"/>
  <rect x="820" y="610" width="660" height="250" rx="26" fill="#101D31"/>
  <rect x="170" y="180" width="220" height="20" rx="10" fill="#67E8F9"/>
  <rect x="170" y="220" width="360" height="14" rx="7" fill="#35506E"/>
  <path d="M190 700L280 620L380 660L510 510L640 570" stroke="#67E8F9" stroke-width="14" stroke-linecap="round" stroke-linejoin="round"/>
  <circle cx="280" cy="620" r="14" fill="#67E8F9"/>
  <circle cx="510" cy="510" r="14" fill="#67E8F9"/>
  <rect x="880" y="400" width="240" height="18" rx="9" fill="#67E8F9"/>
  <rect x="880" y="442" width="420" height="14" rx="7" fill="#35506E"/>
  <rect x="880" y="688" width="250" height="18" rx="9" fill="#67E8F9"/>
  <rect x="880" y="730" width="430" height="14" rx="7" fill="#35506E"/>
</svg>
