<svg width="1600" height="1000" viewBox="0 0 1600 1000" fill="none" xmlns="http://www.w3.org/2000/svg">
  <rect width="1600" height="1000" rx="40" fill="#070F1C"/>
  <rect x="80" y="80" width="1440" height="840" rx="34" fill="#0C1728" stroke="#22314A"/>
  <rect x="130" y="130" width="1340" height="140" rx="24" fill="#101D31"/>
  <rect x="170" y="360" width="220" height="120" rx="24" fill="#12243B"/>
  <rect x="470" y="360" width="220" height="120" rx="24" fill="#12243B"/>
  <rect x="770" y="360" width="220" height="120" rx="24" fill="#12243B"/>
  <rect x="1070" y="360" width="220" height="120" rx="24" fill="#12243B"/>
  <rect x="360" y="620" width="880" height="180" rx="28" fill="#101D31"/>
  <path d="M390 420H470" stroke="#67E8F9" stroke-width="10" stroke-linecap="round"/>
  <path d="M690 420H770" stroke="#67E8F9" stroke-width="10" stroke-linecap="round"/>
  <path d="M990 420H1070" stroke="#67E8F9" stroke-width="10" stroke-linecap="round"/>
  <rect x="180" y="175" width="280" height="18" rx="9" fill="#67E8F9"/>
  <rect x="180" y="212" width="420" height="14" rx="7" fill="#375473"/>
  <rect x="430" y="685" width="320" height="16" rx="8" fill="#67E8F9"/>
  <rect x="430" y="726" width="600" height="14" rx="7" fill="#375473"/>
</svg>
