<svg width="1600" height="1000" viewBox="0 0 1600 1000" fill="none" xmlns="http://www.w3.org/2000/svg">
  <rect width="1600" height="1000" rx="40" fill="#08111D"/>
  <rect x="70" y="70" width="1460" height="860" rx="30" fill="#0C1728" stroke="#22314A"/>
  <rect x="120" y="130" width="1360" height="160" rx="26" fill="#101D31"/>
  <rect x="120" y="340" width="430" height="220" rx="26" fill="#101D31"/>
  <rect x="585" y="340" width="430" height="220" rx="26" fill="#101D31"/>
  <rect x="1050" y="340" width="430" height="220" rx="26" fill="#101D31"/>
  <rect x="120" y="600" width="1360" height="260" rx="26" fill="#101D31"/>
  <rect x="170" y="185" width="220" height="18" rx="9" fill="#67E8F9"/>
  <path d="M190 760H1410" stroke="#2B4462" stroke-width="8" stroke-linecap="round"/>
  <rect x="220" y="720" width="90" height="40" rx="14" fill="#67E8F9"/>
  <rect x="360" y="690" width="90" height="70" rx="14" fill="#67E8F9"/>
  <rect x="500" y="650" width="90" height="110" rx="14" fill="#67E8F9"/>
  <rect x="640" y="620" width="90" height="140" rx="14" fill="#67E8F9"/>
</svg>
